<svg width="800" height="600" viewBox="0 0 800 600" fill="none" xmlns="http://www.w3.org/2000/svg">
  <!-- Background circles -->
  <circle cx="400" cy="300" r="200" fill="rgba(255,255,255,0.1)"/>
  <circle cx="600" cy="150" r="120" fill="rgba(255,255,255,0.08)"/>
  <circle cx="150" cy="450" r="100" fill="rgba(255,255,255,0.08)"/>
  
  <!-- Dashboard/CRM Illustration -->
  <!-- Computer/Tablet -->
  <rect x="200" y="100" width="400" height="280" rx="12" fill="rgba(255,255,255,0.15)" stroke="rgba(255,255,255,0.3)" stroke-width="2"/>
  <rect x="220" y="120" width="360" height="200" rx="8" fill="rgba(255,255,255,0.2)"/>
  
  <!-- Dashboard elements -->
  <!-- Chart bars -->
  <rect x="240" y="200" width="30" height="80" rx="4" fill="rgba(255,255,255,0.4)"/>
  <rect x="290" y="180" width="30" height="100" rx="4" fill="rgba(255,255,255,0.5)"/>
  <rect x="340" y="160" width="30" height="120" rx="4" fill="rgba(255,255,255,0.6)"/>
  <rect x="390" y="190" width="30" height="90" rx="4" fill="rgba(255,255,255,0.4)"/>
  <rect x="440" y="170" width="30" height="110" rx="4" fill="rgba(255,255,255,0.5)"/>
  <rect x="490" y="210" width="30" height="70" rx="4" fill="rgba(255,255,255,0.4)"/>
  <rect x="540" y="195" width="30" height="85" rx="4" fill="rgba(255,255,255,0.4)"/>
  
  <!-- User avatars -->
  <circle cx="260" cy="140" r="12" fill="rgba(255,255,255,0.5)"/>
  <circle cx="290" cy="140" r="12" fill="rgba(255,255,255,0.5)"/>
  <circle cx="320" cy="140" r="12" fill="rgba(255,255,255,0.5)"/>
  
  <!-- People/Team illustration -->
  <g transform="translate(300, 400)">
    <!-- Person 1 -->
    <circle cx="0" cy="0" r="25" fill="rgba(255,255,255,0.2)" stroke="rgba(255,255,255,0.4)" stroke-width="2"/>
    <circle cx="0" cy="-5" r="8" fill="rgba(255,255,255,0.4)"/>
    <path d="M -15 15 Q 0 5 15 15" stroke="rgba(255,255,255,0.4)" stroke-width="2" fill="none"/>
    
    <!-- Person 2 -->
    <circle cx="80" cy="0" r="25" fill="rgba(255,255,255,0.2)" stroke="rgba(255,255,255,0.4)" stroke-width="2"/>
    <circle cx="80" cy="-5" r="8" fill="rgba(255,255,255,0.4)"/>
    <path d="M 65 15 Q 80 5 95 15" stroke="rgba(255,255,255,0.4)" stroke-width="2" fill="none"/>
    
    <!-- Person 3 -->
    <circle cx="160" cy="0" r="25" fill="rgba(255,255,255,0.2)" stroke="rgba(255,255,255,0.4)" stroke-width="2"/>
    <circle cx="160" cy="-5" r="8" fill="rgba(255,255,255,0.4)"/>
    <path d="M 145 15 Q 160 5 175 15" stroke="rgba(255,255,255,0.4)" stroke-width="2" fill="none"/>
  </g>
  
  <!-- Connection lines -->
  <line x1="25" y1="300" x2="80" y2="400" stroke="rgba(255,255,255,0.2)" stroke-width="2" stroke-dasharray="5,5"/>
  <line x1="775" y1="300" x2="720" y2="400" stroke="rgba(255,255,255,0.2)" stroke-width="2" stroke-dasharray="5,5"/>
</svg>

